# Blender v2.78 (sub 0) OBJ File: 'M1917.blend'
# www.blender.org
o M1917_Crane_Cylinder.025
v 0.048412 0.051121 0.158310
v 0.064397 0.027628 0.158310
v 0.069805 0.000676 0.006249
v 0.049014 -0.048252 0.158310
v 0.026645 -0.063981 0.006249
v 0.026645 -0.063981 0.158310
v 0.000224 -0.068629 0.006249
v -0.027163 -0.063844 0.006249
v -0.049945 -0.048528 0.006249
v -0.064847 -0.025607 0.006249
v -0.064847 -0.025607 0.158310
v -0.069633 0.001090 0.158310
v -0.049394 0.050432 0.006249
v -0.049394 0.050432 0.158310
v -0.045060 0.249658 0.194112
v 0.048128 0.249658 0.194112
v 0.048128 0.249658 0.006037
v 0.047417 0.338876 0.006037
v 0.030604 0.127775 0.006037
v 0.000475 0.343327 0.006037
v 0.030604 0.127775 0.166607
v -0.023158 0.127775 0.006037
v -0.026072 0.155555 0.006037
v -0.044106 0.213762 0.194112
v -0.044106 0.213762 0.006037
v 0.046459 0.213762 0.194112
v 0.046459 0.213762 0.006037
v 0.033995 0.155555 0.176643
v 0.033995 0.155555 0.006037
v 0.037329 0.182277 0.006037
v 0.037329 0.182277 0.190645
v -0.033546 0.182277 0.006037
v 0.028423 0.101318 0.006037
v 0.028423 0.101318 0.159558
v -0.020977 0.101318 0.006037
v 0.028222 0.069373 0.006249
v 0.027223 0.067376 0.158310
v -0.000052 0.000676 0.158310
v -0.000052 0.000676 0.006249
v -0.045060 0.249658 0.006037
v -0.044102 0.331055 0.194615
v 0.000475 0.344280 0.194615
v -0.044102 0.330102 0.006037
v 0.048412 0.051121 0.006249
v 0.064397 0.027628 0.006249
v 0.069805 0.000676 0.158310
v 0.064744 -0.025745 0.006249
v 0.064744 -0.025745 0.158310
v 0.049014 -0.048252 0.006249
v 0.000224 -0.068629 0.158310
v -0.027163 -0.063844 0.158310
v -0.049945 -0.048528 0.158310
v -0.069633 0.001090 0.006249
v -0.064847 0.027511 0.006249
v -0.064847 0.027511 0.158310
v -0.022335 0.070371 0.158310
v -0.023158 0.127775 0.166607
v -0.026072 0.155555 0.176643
v -0.033546 0.182277 0.190645
v -0.020977 0.101318 0.159558
v -0.022335 0.070371 0.006249
v 0.047417 0.339829 0.194615
v 0.000003 0.267965 -0.054593
v 0.023918 0.277871 -0.054593
v 0.033823 0.301785 -0.054593
v 0.023918 0.325699 -0.054593
v 0.000003 0.335605 -0.054593
v -0.023911 0.325699 -0.054593
v -0.033817 0.301785 -0.054593
v -0.023911 0.277871 -0.054593
v 0.027591 0.274197 -0.003905
v 0.039018 0.301785 -0.003905
v 0.027591 0.329372 -0.003905
v 0.000003 0.340800 -0.003905
v -0.027584 0.329372 -0.003905
v -0.039011 0.301785 -0.003905
v -0.027584 0.274197 -0.003905
v 0.000003 0.262770 -0.003905
v 0.027715 0.274073 0.008831
v 0.039194 0.301785 0.008831
v 0.027715 0.329497 0.008831
v 0.000003 0.340975 0.008831
v -0.027708 0.329497 0.008831
v -0.039187 0.301785 0.008831
v -0.027708 0.274073 0.008831
v 0.000003 0.262595 0.008831
v 0.000003 0.267965 -0.004862
v -0.023911 0.277871 -0.004862
v -0.033817 0.301785 -0.004862
v -0.023911 0.325699 -0.004862
v 0.000003 0.335605 -0.004862
v 0.023918 0.325699 -0.004862
v 0.033823 0.301785 -0.004862
v 0.023918 0.277871 -0.004862
vt 0.4300 0.8498
vt 0.4049 0.8126
vt 0.4150 0.8089
vt 0.7456 0.7361
vt 0.7824 0.7387
vt 0.7751 0.7542
vt 0.4534 0.7945
vt 0.4724 0.8271
vt 0.4672 0.8315
vt 0.7443 0.8681
vt 0.7360 0.8910
vt 0.7317 0.8705
vt 0.7961 0.8848
vt 0.7758 0.8554
vt 0.7875 0.8482
vt 0.8440 0.8540
vt 0.8019 0.8444
vt 0.8345 0.8372
vt 0.7005 0.8387
vt 0.6826 0.8187
vt 0.7067 0.7784
vt 0.8107 0.8821
vt 0.8467 0.8734
vt 0.7676 0.7701
vt 0.4474 0.7968
vt 0.4623 0.8368
vt 0.4402 0.7995
vt 0.4554 0.8402
vt 0.7626 0.7884
vt 0.7328 0.7487
vt 0.7489 0.8881
vt 0.7548 0.8648
vt 0.7598 0.8865
vt 0.7653 0.7097
vt 0.7992 0.7075
vt 0.7896 0.7246
vt 0.7825 0.8841
vt 0.7657 0.8610
vt 0.7740 0.6940
vt 0.8060 0.6665
vt 0.4324 0.8024
vt 0.4476 0.8431
vt 0.4652 0.7901
vt 0.4842 0.8206
vt 0.4776 0.8234
vt 0.7056 0.8861
vt 0.8270 0.6325
vt 0.8121 0.6266
vt 0.7963 0.6272
vt 0.7821 0.6340
vt 0.8449 0.6573
vt 0.8386 0.6428
vt 0.7660 0.6601
vt 0.7667 0.6760
vt 0.8403 0.6876
vt 0.8458 0.6731
vt 0.7716 0.6457
vt 0.7211 0.8615
vt 0.8146 0.7059
vt 0.8295 0.6992
vt 0.6820 0.9030
vt 0.6905 0.9105
vt 0.6992 0.8579
vt 0.6889 0.8624
vt 0.7306 0.9009
vt 0.7011 0.9147
vt 0.7122 0.9143
vt 0.6810 0.8706
vt 0.6770 0.8812
vt 0.7226 0.9096
vt 0.6777 0.8927
vt 0.7103 0.8574
vt 0.7525 0.8065
vt 0.7249 0.8507
vt 0.3472 0.8710
vt 0.3297 0.8399
vt 0.3357 0.8378
vt 0.3352 0.8752
vt 0.3235 0.8421
vt 0.3175 0.8442
vt 0.3233 0.8794
vt 0.3117 0.8462
vt 0.3173 0.8815
vt 0.3057 0.8483
vt 0.2997 0.8504
vt 0.3114 0.8836
vt 0.2939 0.8525
vt 0.3055 0.8857
vt 0.2878 0.8546
vt 0.2994 0.8878
vt 0.2818 0.8567
vt 0.2934 0.8899
vt 0.2758 0.8588
vt 0.2816 0.8941
vt 0.2699 0.8609
vt 0.2757 0.8961
vt 0.2641 0.8629
vt 0.2580 0.8651
vt 0.2697 0.8982
vt 0.2507 0.8676
vt 0.3484 0.8331
vt 0.3547 0.8686
vt 0.3426 0.8352
vt 0.4097 0.8573
vt 0.4199 0.8535
vt 0.3603 0.8288
vt 0.3679 0.8680
vt 0.3545 0.8309
vt 0.3674 0.8262
vt 0.3748 0.8690
vt 0.3901 0.8643
vt 0.3752 0.8234
vt 0.3610 0.8681
vt 0.3946 0.8164
vt 0.4594 0.7923
vt 0.7559 0.7225
vt 0.0264 0.5899
vt 0.0192 0.5828
vt 0.0260 0.5826
vt 0.0279 0.6202
vt 0.0247 0.6123
vt 0.0277 0.6123
vt 0.0288 0.6043
vt 0.0262 0.5968
vt 0.0285 0.5969
vt 0.0585 0.5903
vt 0.0287 0.5826
vt 0.0587 0.5835
vt 0.0292 0.5748
vt 0.0600 0.5765
vt 0.0320 0.5667
vt 0.0622 0.5687
vt 0.0593 0.6260
vt 0.0579 0.6192
vt 0.0578 0.6122
vt 0.0584 0.6048
vt 0.0593 0.5972
vt 0.0279 0.6292
vt 0.0316 0.6281
vt 0.0182 0.6040
vt 0.0256 0.6042
vt 0.0290 0.5899
vt 0.0174 0.6123
vt 0.0200 0.5900
vt 0.0249 0.6203
vt 0.0174 0.6206
vt 0.0260 0.5747
vt 0.0190 0.5660
vt 0.0284 0.5661
vt 0.0185 0.5748
vt 0.7180 0.7610
vt 0.7714 0.8852
vt 0.4719 0.7877
vt 0.3414 0.8731
vt 0.3292 0.8773
vt 0.2875 0.8920
vt 0.2623 0.9008
vt 0.3822 0.8671
vt 0.0201 0.5967
vt 0.0186 0.6299
vn -0.6406 0.4842 0.5959
vn -0.0720 0.7402 -0.6685
vn -0.6414 0.4831 -0.5959
vn -0.6613 -0.4196 0.6217
vn 0.6979 -0.2820 0.6583
vn 0.7003 -0.3612 0.6156
vn -0.6749 -0.1288 -0.7265
vn -0.7015 -0.2748 0.6575
vn -0.6914 -0.0158 -0.7223
vn 0.5403 0.2336 -0.8083
vn -0.5087 0.2683 -0.8180
vn 0.7219 -0.1197 -0.6816
vn -0.6703 -0.2060 -0.7129
vn -0.7263 -0.1285 -0.6753
vn -0.7114 -0.0052 -0.7028
vn -0.0722 0.7418 0.6667
vn -0.7119 -0.0072 0.7022
vn 0.7130 -0.0137 -0.7010
vn 0.5990 0.5476 -0.5842
vn 0.6134 -0.3377 0.7139
vn -0.6063 -0.3782 0.6995
vn -0.7131 -0.1553 0.6837
vn 0.7084 -0.1481 0.6901
vn 0.6978 -0.0347 -0.7154
vn -0.7015 -0.0657 -0.7096
vn 0.6990 -0.0714 -0.7115
vn -0.7174 -0.1220 0.6858
vn 0.5162 0.2279 0.8256
vn 0.7235 -0.1478 0.6743
vn 0.6742 -0.1389 -0.7253
vn -0.5158 0.2576 0.8171
vn 0.0000 0.0000 1.0000
vn 0.0000 0.0000 -1.0000
vn 0.0004 -0.7421 0.6702
vn -0.2793 -0.6944 0.6631
vn -0.5323 -0.5242 0.6648
vn -0.6943 -0.2748 0.6651
vn 0.5256 -0.5241 0.6701
vn 0.2876 -0.6928 0.6612
vn -0.6930 0.2817 0.6636
vn -0.5353 0.5134 0.6707
vn 0.7457 0.0033 0.6662
vn 0.6896 -0.2912 0.6630
vn -0.7430 0.0007 0.6693
vn -0.5353 0.5134 -0.6707
vn 0.5376 0.5079 0.6730
vn 0.6885 0.2893 0.6651
vn 0.2876 -0.6928 -0.6612
vn 0.5256 -0.5241 -0.6701
vn -0.7430 0.0007 -0.6693
vn -0.6943 -0.2748 -0.6651
vn 0.5514 0.4847 -0.6790
vn 0.6896 -0.2912 -0.6630
vn 0.7457 0.0033 -0.6662
vn -0.5323 -0.5242 -0.6648
vn -0.2793 -0.6944 -0.6632
vn 0.6885 0.2893 -0.6651
vn 0.0004 -0.7421 -0.6702
vn -0.6930 0.2817 -0.6636
vn 0.7136 -0.0156 0.7004
vn 0.5983 0.5491 0.5835
vn 0.7015 -0.0866 -0.7074
vn -0.5771 -0.5771 -0.5777
vn -0.9999 0.0000 -0.0138
vn -0.8162 0.0000 -0.5777
vn 0.4844 0.4844 -0.7284
vn 0.8162 0.0000 -0.5777
vn 0.6851 0.0000 -0.7284
vn 0.4844 -0.4844 -0.7284
vn 0.0000 -0.8162 -0.5777
vn 0.0000 -0.6851 -0.7284
vn -0.7071 -0.7071 0.0000
vn -0.6851 0.0000 -0.7284
vn -1.0000 0.0000 0.0000
vn -0.4844 0.4844 -0.7284
vn -0.7071 0.7071 0.0000
vn 0.0000 0.6851 -0.7284
vn 0.0000 1.0000 0.0000
vn 0.7071 0.7071 0.0000
vn 1.0000 0.0000 0.0000
vn 0.7071 -0.7071 0.0000
vn 0.0000 -1.0000 0.0000
vn 0.0000 0.8162 -0.5777
vn 0.7070 -0.7070 -0.0138
vn 0.5771 -0.5771 -0.5777
vn -0.4844 -0.4844 -0.7284
vn 0.9999 0.0000 -0.0138
vn -0.7070 -0.7070 -0.0138
vn 0.5771 0.5771 -0.5777
vn 0.7070 0.7070 -0.0138
vn -0.5771 0.5771 -0.5777
vn 0.0000 0.9999 -0.0138
vn -0.7070 0.7070 -0.0138
vn 0.0000 -0.9999 -0.0138
s 1
f 41/1/1 20/2/2 43/3/3
f 58/4/4 21/5/5 28/6/6
f 23/7/7 57/8/8 58/9/4
f 35/10/9 36/11/10 61/12/11
f 27/13/12 32/14/13 25/15/14
f 20/16/2 40/17/15 43/18/3
f 42/19/16 41/20/1 15/21/17
f 17/22/18 20/16/2 18/23/19
f 31/24/20 58/4/4 28/6/6
f 32/25/13 58/9/4 59/26/21
f 25/27/14 59/26/21 24/28/22
f 26/29/23 59/30/21 31/24/20
f 33/31/24 22/32/25 19/33/26
f 60/34/27 37/35/28 34/36/29
f 30/37/30 23/38/7 32/14/13
f 56/39/31 38/40/32 37/35/28
f 40/41/15 24/28/22 15/42/17
f 35/43/9 56/44/31 60/45/27
f 23/38/7 19/33/26 22/32/25
f 39/46/33 61/12/11 36/11/10
f 50/47/34 38/40/32 51/48/35
f 52/49/36 38/40/32 11/50/37
f 4/51/38 38/40/32 6/52/39
f 55/53/40 38/40/32 14/54/41
f 46/55/42 38/40/32 48/56/43
f 11/50/37 38/40/32 12/57/44
f 61/12/11 39/46/33 13/58/45
f 1/59/46 38/40/32 2/60/47
f 6/52/39 38/40/32 50/47/34
f 14/54/41 38/40/32 56/39/31
f 37/35/28 38/40/32 1/59/46
f 48/56/43 38/40/32 4/51/38
f 12/57/44 38/40/32 55/53/40
f 2/60/47 38/40/32 46/55/42
f 5/61/48 39/46/33 49/62/49
f 53/63/50 39/46/33 10/64/51
f 44/65/52 39/46/33 36/11/10
f 47/66/53 39/46/33 3/67/54
f 9/68/55 39/46/33 8/69/56
f 45/70/57 39/46/33 44/65/52
f 7/71/58 39/46/33 5/61/48
f 54/72/59 39/46/33 53/63/50
f 49/62/49 39/46/33 47/66/53
f 10/64/51 39/46/33 9/68/55
f 3/67/54 39/46/33 45/70/57
f 13/58/45 39/46/33 54/72/59
f 8/69/56 39/46/33 7/71/58
f 15/21/17 16/73/60 42/19/16
f 40/17/15 20/16/2 17/22/18
f 42/19/16 16/73/60 62/74/61
f 27/13/12 40/17/15 17/22/18
f 37/75/28 44/76/52 36/77/10
f 43/3/3 15/42/17 41/1/1
f 44/76/52 2/78/47 45/79/57
f 2/78/47 3/80/54 45/79/57
f 3/80/54 48/81/43 47/82/53
f 47/82/53 4/83/38 49/84/49
f 4/83/38 5/85/48 49/84/49
f 6/86/39 7/87/58 5/85/48
f 50/88/34 8/89/56 7/87/58
f 51/90/35 9/91/55 8/89/56
f 52/92/36 10/93/51 9/91/55
f 10/93/51 12/94/44 53/95/50
f 53/95/50 55/96/40 54/97/59
f 55/96/40 13/98/45 54/97/59
f 14/99/41 61/100/11 13/98/45
f 19/101/26 34/102/29 33/103/24
f 62/104/61 20/2/2 42/105/16
f 30/106/30 28/107/6 29/108/62
f 27/109/12 31/110/20 30/106/30
f 16/111/60 27/109/12 17/112/18
f 29/108/62 21/113/5 19/101/26
f 33/103/24 37/75/28 36/77/10
f 15/21/17 26/29/23 16/73/60
f 16/111/60 18/114/19 62/104/61
f 22/115/25 60/45/27 57/8/8
f 51/48/35 38/40/32 52/49/36
f 60/34/27 21/5/5 57/116/8
f 77/117/63 84/118/64 76/119/65
f 92/120/66 72/121/67 93/122/68
f 94/123/69 78/124/70 87/125/71
f 70/126/72 89/127/73 69/128/74
f 69/128/74 90/129/75 68/130/76
f 68/130/76 91/131/77 67/132/78
f 67/133/78 92/120/66 66/134/79
f 66/134/79 93/122/68 65/135/80
f 65/135/80 94/123/69 64/136/81
f 64/136/81 87/125/71 63/137/82
f 74/138/83 92/120/66 91/139/77
f 79/140/84 78/124/70 71/141/85
f 77/117/63 89/127/73 88/142/86
f 71/141/85 80/143/87 79/140/84
f 78/124/70 85/144/88 77/117/63
f 87/125/71 77/117/63 88/142/86
f 73/145/89 80/143/87 72/121/67
f 74/138/83 81/146/90 73/145/89
f 75/147/91 82/148/92 74/149/83
f 89/127/73 75/147/91 90/129/75
f 75/147/91 84/118/64 83/150/93
f 93/122/68 71/141/85 94/123/69
f 63/137/82 88/142/86 70/126/72
f 91/131/77 75/147/91 74/149/83
f 41/1/1 42/105/16 20/2/2
f 58/4/4 57/116/8 21/5/5
f 23/7/7 22/115/25 57/8/8
f 35/10/9 33/31/24 36/11/10
f 27/13/12 30/37/30 32/14/13
f 31/24/20 59/30/21 58/4/4
f 32/25/13 23/7/7 58/9/4
f 25/27/14 32/25/13 59/26/21
f 26/29/23 24/151/22 59/30/21
f 33/31/24 35/10/9 22/32/25
f 60/34/27 56/39/31 37/35/28
f 30/37/30 29/152/62 23/38/7
f 40/41/15 25/27/14 24/28/22
f 35/43/9 61/153/11 56/44/31
f 23/38/7 29/152/62 19/33/26
f 27/13/12 25/15/14 40/17/15
f 37/75/28 1/154/46 44/76/52
f 43/3/3 40/41/15 15/42/17
f 44/76/52 1/154/46 2/78/47
f 2/78/47 46/155/42 3/80/54
f 3/80/54 46/155/42 48/81/43
f 47/82/53 48/81/43 4/83/38
f 4/83/38 6/86/39 5/85/48
f 6/86/39 50/88/34 7/87/58
f 50/88/34 51/90/35 8/89/56
f 51/90/35 52/92/36 9/91/55
f 52/92/36 11/156/37 10/93/51
f 10/93/51 11/156/37 12/94/44
f 53/95/50 12/94/44 55/96/40
f 55/96/40 14/99/41 13/98/45
f 14/99/41 56/157/31 61/100/11
f 19/101/26 21/113/5 34/102/29
f 62/104/61 18/114/19 20/2/2
f 30/106/30 31/110/20 28/107/6
f 27/109/12 26/158/23 31/110/20
f 16/111/60 26/158/23 27/109/12
f 29/108/62 28/107/6 21/113/5
f 33/103/24 34/102/29 37/75/28
f 15/21/17 24/151/22 26/29/23
f 16/111/60 17/112/18 18/114/19
f 22/115/25 35/43/9 60/45/27
f 60/34/27 34/36/29 21/5/5
f 77/117/63 85/144/88 84/118/64
f 92/120/66 73/145/89 72/121/67
f 94/123/69 71/141/85 78/124/70
f 70/126/72 88/142/86 89/127/73
f 69/128/74 89/127/73 90/129/75
f 68/130/76 90/129/75 91/131/77
f 67/133/78 91/139/77 92/120/66
f 66/134/79 92/120/66 93/122/68
f 65/135/80 93/122/68 94/123/69
f 64/136/81 94/123/69 87/125/71
f 74/138/83 73/145/89 92/120/66
f 79/140/84 86/159/94 78/124/70
f 77/117/63 76/119/65 89/127/73
f 71/141/85 72/121/67 80/143/87
f 78/124/70 86/159/94 85/144/88
f 87/125/71 78/124/70 77/117/63
f 73/145/89 81/146/90 80/143/87
f 74/138/83 82/160/92 81/146/90
f 75/147/91 83/150/93 82/148/92
f 89/127/73 76/119/65 75/147/91
f 75/147/91 76/119/65 84/118/64
f 93/122/68 72/121/67 71/141/85
f 63/137/82 87/125/71 88/142/86
f 91/131/77 90/129/75 75/147/91
