# Blender v2.78 (sub 0) OBJ File: 'M1917.blend'
# www.blender.org
o M1917_Bullet_Shot_Cylinder.037
v -0.000000 0.056606 -0.000457
v 0.021662 0.052297 -0.000457
v 0.040026 0.040026 -0.000457
v 0.052297 0.021662 -0.000457
v 0.056606 -0.000000 -0.000457
v 0.052297 -0.021662 -0.000457
v 0.040026 -0.040026 -0.000457
v 0.021662 -0.052297 -0.000457
v -0.000000 -0.056606 -0.000457
v -0.021662 -0.052297 -0.000457
v -0.040026 -0.040026 -0.000457
v -0.052297 -0.021662 -0.000457
v -0.056606 -0.000000 -0.000457
v -0.052297 0.021662 -0.000457
v -0.040026 0.040026 -0.000457
v -0.021662 0.052297 -0.000457
v -0.000000 -0.000000 -0.000457
v -0.000000 -0.056606 -0.000457
v -0.000000 -0.056606 0.229852
v -0.000000 -0.056606 0.011974
v -0.000000 -0.056694 0.032140
v -0.000000 -0.045636 0.011974
v -0.000000 -0.052042 0.229852
v 0.000000 0.000000 0.039457
v -0.021662 -0.052297 -0.000457
v -0.021662 -0.052297 0.229852
v -0.021662 -0.052297 0.011974
v -0.021696 -0.052379 0.032140
v -0.017464 -0.042162 0.011974
v -0.019916 -0.048081 0.229852
v -0.040026 -0.040026 -0.000457
v -0.040026 -0.040026 0.229852
v -0.040026 -0.040026 0.011974
v -0.040089 -0.040089 0.032140
v -0.032270 -0.032270 0.011974
v -0.036800 -0.036800 0.229852
v -0.052297 -0.021662 -0.000457
v -0.052297 -0.021662 0.229852
v -0.052297 -0.021662 0.011974
v -0.052379 -0.021696 0.032140
v -0.042162 -0.017464 0.011974
v -0.048081 -0.019916 0.229852
v -0.056606 0.000000 -0.000457
v -0.056606 0.000000 0.229852
v -0.056606 0.000000 0.011974
v -0.056694 0.000000 0.032140
v -0.045636 0.000000 0.011974
v -0.052042 0.000000 0.229852
v -0.052297 0.021662 -0.000457
v -0.052297 0.021662 0.229852
v -0.052297 0.021662 0.011974
v -0.052379 0.021696 0.032140
v -0.042162 0.017464 0.011974
v -0.048081 0.019916 0.229852
v -0.040026 0.040026 -0.000457
v -0.040026 0.040026 0.229852
v -0.040026 0.040026 0.011974
v -0.040089 0.040089 0.032140
v -0.032270 0.032270 0.011974
v -0.036800 0.036800 0.229852
v -0.021662 0.052297 -0.000457
v -0.021662 0.052297 0.229852
v -0.021662 0.052297 0.011974
v -0.021696 0.052379 0.032140
v -0.017464 0.042162 0.011974
v -0.019916 0.048081 0.229852
v 0.000000 0.056606 -0.000457
v 0.000000 0.056606 0.229852
v 0.000000 0.056606 0.011974
v 0.000000 0.056694 0.032140
v 0.000000 0.045636 0.011974
v 0.000000 0.052042 0.229852
v 0.021662 0.052297 -0.000457
v 0.021662 0.052297 0.229852
v 0.021662 0.052297 0.011974
v 0.021696 0.052379 0.032140
v 0.017464 0.042162 0.011974
v 0.019916 0.048081 0.229852
v 0.040026 0.040026 -0.000457
v 0.040026 0.040026 0.229852
v 0.040026 0.040026 0.011974
v 0.040089 0.040089 0.032140
v 0.032270 0.032270 0.011974
v 0.036800 0.036800 0.229852
v 0.052297 0.021662 -0.000457
v 0.052297 0.021662 0.229852
v 0.052297 0.021662 0.011974
v 0.052379 0.021696 0.032140
v 0.042162 0.017464 0.011974
v 0.048081 0.019916 0.229852
v 0.056606 -0.000000 -0.000457
v 0.056606 -0.000000 0.229852
v 0.056606 -0.000000 0.011974
v 0.056694 -0.000000 0.032140
v 0.045636 -0.000000 0.011974
v 0.052042 -0.000000 0.229852
v 0.052297 -0.021662 -0.000457
v 0.052297 -0.021662 0.229852
v 0.052297 -0.021662 0.011974
v 0.052379 -0.021696 0.032140
v 0.042162 -0.017464 0.011974
v 0.048081 -0.019916 0.229852
v 0.040026 -0.040026 -0.000457
v 0.040026 -0.040026 0.229852
v 0.040026 -0.040026 0.011974
v 0.040089 -0.040089 0.032140
v 0.032270 -0.032270 0.011974
v 0.036800 -0.036800 0.229852
v 0.021662 -0.052297 -0.000457
v 0.021662 -0.052297 0.229852
v 0.021662 -0.052297 0.011974
v 0.021696 -0.052379 0.032140
v 0.017464 -0.042162 0.011974
v 0.019916 -0.048081 0.229852
vt 0.9810 0.7888
vt 0.9856 0.7934
vt 0.9717 0.8027
vt 0.9810 0.8166
vt 0.9750 0.8191
vt 0.9578 0.8120
vt 0.9553 0.8060
vt 0.9685 0.7863
vt 0.9750 0.7863
vt 0.9685 0.8191
vt 0.9624 0.8166
vt 0.9881 0.8060
vt 0.9856 0.8120
vt 0.9578 0.7934
vt 0.9624 0.7888
vt 0.9881 0.7994
vt 0.9553 0.7994
vt 0.5839 0.0302
vt 0.8672 0.0151
vt 0.8672 0.0302
vt 0.9595 0.0302
vt 0.9936 0.0151
vt 0.9936 0.0302
vt 0.9595 0.0151
vt 0.9300 0.0287
vt 0.9300 0.0165
vt 0.5831 0.0151
vt 0.5641 0.0302
vt 0.5637 0.0151
vt 0.3624 0.0229
vt 0.5839 0.0302
vt 0.8672 0.0151
vt 0.8672 0.0302
vt 0.9595 0.0302
vt 0.9936 0.0151
vt 0.9936 0.0302
vt 0.9595 0.0151
vt 0.9300 0.0287
vt 0.9300 0.0165
vt 0.5637 0.0151
vt 0.5831 0.0151
vt 0.5641 0.0302
vt 0.5839 0.0302
vt 0.8672 0.0151
vt 0.8672 0.0302
vt 0.9595 0.0302
vt 0.9936 0.0151
vt 0.9936 0.0302
vt 0.9595 0.0151
vt 0.9300 0.0287
vt 0.9300 0.0165
vt 0.5637 0.0151
vt 0.5831 0.0151
vt 0.5641 0.0302
vt 0.8672 0.0302
vt 0.5831 0.0151
vt 0.8672 0.0151
vt 0.9595 0.0302
vt 0.9936 0.0151
vt 0.9936 0.0302
vt 0.9595 0.0151
vt 0.9300 0.0287
vt 0.9300 0.0165
vt 0.5641 0.0302
vt 0.5637 0.0151
vt 0.5839 0.0302
vt 0.8672 0.0151
vt 0.8672 0.0302
vt 0.9595 0.0302
vt 0.9936 0.0151
vt 0.9936 0.0302
vt 0.9595 0.0151
vt 0.9300 0.0287
vt 0.9300 0.0165
vt 0.5637 0.0151
vt 0.5831 0.0151
vt 0.5641 0.0302
vt 0.5839 0.0302
vt 0.8672 0.0151
vt 0.8672 0.0302
vt 0.9595 0.0302
vt 0.9936 0.0151
vt 0.9936 0.0302
vt 0.9595 0.0151
vt 0.9300 0.0287
vt 0.9300 0.0165
vt 0.5831 0.0151
vt 0.5641 0.0302
vt 0.5637 0.0151
vt 0.5839 0.0302
vt 0.8672 0.0151
vt 0.8672 0.0302
vt 0.9595 0.0302
vt 0.9936 0.0151
vt 0.9936 0.0302
vt 0.9595 0.0151
vt 0.9300 0.0287
vt 0.9300 0.0165
vt 0.5637 0.0151
vt 0.5831 0.0151
vt 0.5641 0.0302
vt 0.5839 0.0302
vt 0.8672 0.0151
vt 0.8672 0.0302
vt 0.9595 0.0302
vt 0.9936 0.0151
vt 0.9936 0.0302
vt 0.9595 0.0151
vt 0.9300 0.0287
vt 0.9300 0.0165
vt 0.5637 0.0151
vt 0.5831 0.0151
vt 0.5641 0.0302
vt 0.5839 0.0302
vt 0.8672 0.0151
vt 0.8672 0.0302
vt 0.9595 0.0302
vt 0.9936 0.0151
vt 0.9936 0.0302
vt 0.9595 0.0151
vt 0.9300 0.0287
vt 0.9300 0.0165
vt 0.5637 0.0151
vt 0.5831 0.0151
vt 0.5641 0.0302
vt 0.5839 0.0302
vt 0.8672 0.0151
vt 0.8672 0.0302
vt 0.9595 0.0302
vt 0.9936 0.0151
vt 0.9936 0.0302
vt 0.9595 0.0151
vt 0.9300 0.0287
vt 0.9300 0.0165
vt 0.5637 0.0151
vt 0.5831 0.0151
vt 0.5641 0.0302
vt 0.5839 0.0302
vt 0.8672 0.0151
vt 0.8672 0.0302
vt 0.9595 0.0302
vt 0.9936 0.0151
vt 0.9936 0.0302
vt 0.9595 0.0151
vt 0.9300 0.0287
vt 0.9300 0.0165
vt 0.5831 0.0151
vt 0.5641 0.0302
vt 0.5637 0.0151
vt 0.5839 0.0302
vt 0.8672 0.0151
vt 0.8672 0.0302
vt 0.9595 0.0302
vt 0.9936 0.0151
vt 0.9936 0.0302
vt 0.9595 0.0151
vt 0.9300 0.0287
vt 0.9300 0.0165
vt 0.5637 0.0151
vt 0.5831 0.0151
vt 0.5641 0.0302
vt 0.5839 0.0302
vt 0.8672 0.0151
vt 0.8672 0.0302
vt 0.9595 0.0302
vt 0.9936 0.0151
vt 0.9936 0.0302
vt 0.9595 0.0151
vt 0.9300 0.0287
vt 0.9300 0.0165
vt 0.5831 0.0151
vt 0.5641 0.0302
vt 0.5637 0.0151
vt 0.5839 0.0302
vt 0.8672 0.0151
vt 0.8672 0.0302
vt 0.9595 0.0302
vt 0.9936 0.0151
vt 0.9936 0.0302
vt 0.9595 0.0151
vt 0.9300 0.0287
vt 0.9300 0.0165
vt 0.5637 0.0151
vt 0.5831 0.0151
vt 0.5641 0.0302
vt 0.5839 0.0302
vt 0.8672 0.0151
vt 0.8672 0.0302
vt 0.9595 0.0302
vt 0.9936 0.0151
vt 0.9936 0.0302
vt 0.9595 0.0151
vt 0.9300 0.0287
vt 0.9300 0.0165
vt 0.5831 0.0151
vt 0.5641 0.0302
vt 0.5637 0.0151
vt 0.5839 0.0302
vt 0.8672 0.0151
vt 0.8672 0.0302
vt 0.9595 0.0302
vt 0.9936 0.0151
vt 0.9936 0.0302
vt 0.9595 0.0151
vt 0.9300 0.0287
vt 0.9300 0.0165
vt 0.5831 0.0151
vt 0.5641 0.0302
vt 0.5637 0.0151
vt 0.5839 0.0302
vn 0.0000 0.0000 -1.0000
vn 0.2855 -0.6893 0.6659
vn 0.0000 -0.9705 -0.2408
vn 0.3714 -0.8967 -0.2408
vn 0.2855 -0.6894 0.6657
vn 0.0000 -1.0000 0.0000
vn 0.3827 -0.9239 0.0000
vn 0.0000 -0.7462 0.6657
vn 0.3164 -0.7638 0.5626
vn 0.0000 -0.8267 0.5626
vn 0.0000 -0.7460 0.6659
vn -0.2122 0.5122 0.8322
vn 0.0000 0.5544 0.8322
vn 0.0000 0.0000 1.0000
vn -0.3714 -0.8967 -0.2408
vn -0.3827 -0.9239 0.0000
vn -0.2855 -0.6894 0.6657
vn -0.3164 -0.7638 0.5626
vn 0.2122 0.5122 0.8322
vn -0.2855 -0.6893 0.6659
vn -0.6863 -0.6863 -0.2408
vn -0.7071 -0.7071 0.0000
vn -0.5276 -0.5276 0.6657
vn -0.5846 -0.5846 0.5626
vn 0.3920 0.3920 0.8322
vn -0.5275 -0.5275 0.6659
vn -0.6893 -0.2855 0.6659
vn -0.8967 -0.3714 -0.2408
vn -0.9239 -0.3827 0.0000
vn -0.6894 -0.2855 0.6657
vn -0.7638 -0.3164 0.5626
vn 0.5122 0.2122 0.8322
vn -0.9705 0.0000 -0.2408
vn -1.0000 0.0000 0.0000
vn -0.7462 0.0000 0.6657
vn -0.8267 0.0000 0.5626
vn 0.5544 0.0000 0.8322
vn -0.7460 0.0000 0.6659
vn -0.8967 0.3714 -0.2408
vn -0.9239 0.3827 0.0000
vn -0.6894 0.2855 0.6657
vn -0.7638 0.3164 0.5626
vn -0.6893 0.2855 0.6659
vn 0.5122 -0.2122 0.8322
vn -0.6863 0.6863 -0.2408
vn -0.7071 0.7071 0.0000
vn -0.5276 0.5276 0.6657
vn -0.5846 0.5846 0.5626
vn 0.3920 -0.3920 0.8322
vn -0.5275 0.5275 0.6659
vn -0.3714 0.8967 -0.2408
vn -0.3827 0.9239 0.0000
vn -0.2855 0.6894 0.6657
vn -0.3164 0.7638 0.5626
vn 0.2122 -0.5122 0.8322
vn -0.2855 0.6893 0.6659
vn 0.0000 0.9705 -0.2408
vn 0.0000 1.0000 0.0000
vn 0.0000 0.7462 0.6657
vn 0.0000 0.8267 0.5626
vn 0.0000 -0.5544 0.8322
vn 0.0000 0.7460 0.6659
vn 0.3714 0.8967 -0.2408
vn 0.3827 0.9239 0.0000
vn 0.2855 0.6894 0.6657
vn 0.3164 0.7638 0.5626
vn -0.2122 -0.5122 0.8322
vn 0.2855 0.6893 0.6659
vn 0.6863 0.6863 -0.2408
vn 0.7071 0.7071 0.0000
vn 0.5276 0.5276 0.6657
vn 0.5846 0.5846 0.5626
vn 0.5275 0.5275 0.6659
vn -0.3920 -0.3920 0.8322
vn 0.8967 0.3714 -0.2408
vn 0.9239 0.3827 0.0000
vn 0.6894 0.2855 0.6657
vn 0.7638 0.3164 0.5626
vn -0.5122 -0.2122 0.8322
vn 0.6893 0.2855 0.6659
vn 0.9705 0.0000 -0.2408
vn 1.0000 0.0000 0.0000
vn 0.7462 0.0000 0.6657
vn 0.8267 0.0000 0.5626
vn 0.7461 0.0000 0.6659
vn -0.5544 0.0000 0.8322
vn 0.8967 -0.3714 -0.2408
vn 0.9239 -0.3827 0.0000
vn 0.6894 -0.2855 0.6657
vn 0.7638 -0.3164 0.5626
vn -0.5122 0.2122 0.8322
vn 0.6893 -0.2855 0.6659
vn 0.6863 -0.6863 -0.2408
vn 0.7071 -0.7071 0.0000
vn 0.5276 -0.5276 0.6657
vn 0.5846 -0.5846 0.5626
vn 0.5275 -0.5275 0.6659
vn -0.3920 0.3920 0.8322
s 1
f 10/1/1 11/2/1 17/3/1
f 15/4/1 16/5/1 17/3/1
f 3/6/1 4/7/1 17/3/1
f 8/8/1 9/9/1 17/3/1
f 1/10/1 2/11/1 17/3/1
f 13/12/1 14/13/1 17/3/1
f 6/14/1 7/15/1 17/3/1
f 11/2/1 12/16/1 17/3/1
f 16/5/1 1/10/1 17/3/1
f 4/7/1 5/17/1 17/3/1
f 9/9/1 10/1/1 17/3/1
f 14/13/1 15/4/1 17/3/1
f 2/11/1 3/6/1 17/3/1
f 7/15/1 8/8/1 17/3/1
f 12/16/1 13/12/1 17/3/1
f 5/17/1 6/14/1 17/3/1
f 110/18/2 21/19/3 112/20/4
f 111/21/5 18/22/6 109/23/7
f 20/24/8 113/25/9 22/26/10
f 113/25/9 21/19/3 22/26/10
f 19/27/11 114/28/12 23/29/13
f 114/28/12 24/30/14 23/29/13
f 19/31/11 28/32/15 21/33/3
f 20/34/8 25/35/16 18/36/6
f 27/37/17 22/38/10 29/39/18
f 22/38/10 28/32/15 29/39/18
f 19/31/11 30/40/19 26/41/20
f 23/42/13 24/30/14 30/40/19
f 26/43/20 34/44/21 28/45/15
f 27/46/17 31/47/22 25/48/16
f 33/49/23 29/50/18 35/51/24
f 29/50/18 34/44/21 35/51/24
f 26/43/20 36/52/25 32/53/26
f 30/54/19 24/30/14 36/52/25
f 34/55/21 38/56/27 40/57/28
f 33/58/23 37/59/29 31/60/22
f 39/61/30 35/62/24 41/63/31
f 34/55/21 41/63/31 35/62/24
f 38/56/27 36/64/25 42/65/32
f 36/64/25 24/30/14 42/65/32
f 38/66/27 46/67/33 40/68/28
f 39/69/30 43/70/34 37/71/29
f 45/72/35 41/73/31 47/74/36
f 41/73/31 46/67/33 47/74/36
f 38/66/27 48/75/37 44/76/38
f 42/77/32 24/30/14 48/75/37
f 44/78/38 52/79/39 46/80/33
f 45/81/35 49/82/40 43/83/34
f 51/84/41 47/85/36 53/86/42
f 46/80/33 53/86/42 47/85/36
f 50/87/43 48/88/37 54/89/44
f 48/88/37 24/30/14 54/89/44
f 50/90/43 58/91/45 52/92/39
f 51/93/41 55/94/46 49/95/40
f 57/96/47 53/97/42 59/98/48
f 53/97/42 58/91/45 59/98/48
f 50/90/43 60/99/49 56/100/50
f 54/101/44 24/30/14 60/99/49
f 56/102/50 64/103/51 58/104/45
f 57/105/47 61/106/52 55/107/46
f 63/108/53 59/109/48 65/110/54
f 59/109/48 64/103/51 65/110/54
f 56/102/50 66/111/55 62/112/56
f 60/113/49 24/30/14 66/111/55
f 62/114/56 70/115/57 64/116/51
f 63/117/53 67/118/58 61/119/52
f 69/120/59 65/121/54 71/122/60
f 65/121/54 70/115/57 71/122/60
f 62/114/56 72/123/61 68/124/62
f 66/125/55 24/30/14 72/123/61
f 68/126/62 76/127/63 70/128/57
f 69/129/59 73/130/64 67/131/58
f 75/132/65 71/133/60 77/134/66
f 71/133/60 76/127/63 77/134/66
f 68/126/62 78/135/67 74/136/68
f 72/137/61 24/30/14 78/135/67
f 74/138/68 82/139/69 76/140/63
f 75/141/65 79/142/70 73/143/64
f 81/144/71 77/145/66 83/146/72
f 77/145/66 82/139/69 83/146/72
f 80/147/73 78/148/67 84/149/74
f 78/148/67 24/30/14 84/149/74
f 80/150/73 88/151/75 82/152/69
f 81/153/71 85/154/76 79/155/70
f 87/156/77 83/157/72 89/158/78
f 83/157/72 88/151/75 89/158/78
f 80/150/73 90/159/79 86/160/80
f 84/161/74 24/30/14 90/159/79
f 86/162/80 94/163/81 88/164/75
f 87/165/77 91/166/82 85/167/76
f 93/168/83 89/169/78 95/170/84
f 89/169/78 94/163/81 95/170/84
f 92/171/85 90/172/79 96/173/86
f 90/172/79 24/30/14 96/173/86
f 92/174/85 100/175/87 94/176/81
f 93/177/83 97/178/88 91/179/82
f 99/180/89 95/181/84 101/182/90
f 95/181/84 100/175/87 101/182/90
f 92/174/85 102/183/91 98/184/92
f 96/185/86 24/30/14 102/183/91
f 98/186/92 106/187/93 100/188/87
f 99/189/89 103/190/94 97/191/88
f 105/192/95 101/193/90 107/194/96
f 101/193/90 106/187/93 107/194/96
f 104/195/97 102/196/91 108/197/98
f 102/196/91 24/30/14 108/197/98
f 104/198/97 112/199/4 106/200/93
f 105/201/95 109/202/7 103/203/94
f 111/204/5 107/205/96 113/206/9
f 106/200/93 113/206/9 107/205/96
f 110/207/2 108/208/98 114/209/12
f 108/208/98 24/30/14 114/209/12
f 110/18/2 19/27/11 21/19/3
f 111/21/5 20/24/8 18/22/6
f 20/24/8 111/21/5 113/25/9
f 113/25/9 112/20/4 21/19/3
f 19/27/11 110/18/2 114/28/12
f 19/31/11 26/41/20 28/32/15
f 20/34/8 27/37/17 25/35/16
f 27/37/17 20/34/8 22/38/10
f 22/38/10 21/33/3 28/32/15
f 19/31/11 23/42/13 30/40/19
f 26/43/20 32/53/26 34/44/21
f 27/46/17 33/49/23 31/47/22
f 33/49/23 27/46/17 29/50/18
f 29/50/18 28/45/15 34/44/21
f 26/43/20 30/54/19 36/52/25
f 34/55/21 32/210/26 38/56/27
f 33/58/23 39/61/30 37/59/29
f 39/61/30 33/58/23 35/62/24
f 34/55/21 40/57/28 41/63/31
f 38/56/27 32/210/26 36/64/25
f 38/66/27 44/76/38 46/67/33
f 39/69/30 45/72/35 43/70/34
f 45/72/35 39/69/30 41/73/31
f 41/73/31 40/68/28 46/67/33
f 38/66/27 42/77/32 48/75/37
f 44/78/38 50/87/43 52/79/39
f 45/81/35 51/84/41 49/82/40
f 51/84/41 45/81/35 47/85/36
f 46/80/33 52/79/39 53/86/42
f 50/87/43 44/78/38 48/88/37
f 50/90/43 56/100/50 58/91/45
f 51/93/41 57/96/47 55/94/46
f 57/96/47 51/93/41 53/97/42
f 53/97/42 52/92/39 58/91/45
f 50/90/43 54/101/44 60/99/49
f 56/102/50 62/112/56 64/103/51
f 57/105/47 63/108/53 61/106/52
f 63/108/53 57/105/47 59/109/48
f 59/109/48 58/104/45 64/103/51
f 56/102/50 60/113/49 66/111/55
f 62/114/56 68/124/62 70/115/57
f 63/117/53 69/120/59 67/118/58
f 69/120/59 63/117/53 65/121/54
f 65/121/54 64/116/51 70/115/57
f 62/114/56 66/125/55 72/123/61
f 68/126/62 74/136/68 76/127/63
f 69/129/59 75/132/65 73/130/64
f 75/132/65 69/129/59 71/133/60
f 71/133/60 70/128/57 76/127/63
f 68/126/62 72/137/61 78/135/67
f 74/138/68 80/147/73 82/139/69
f 75/141/65 81/144/71 79/142/70
f 81/144/71 75/141/65 77/145/66
f 77/145/66 76/140/63 82/139/69
f 80/147/73 74/138/68 78/148/67
f 80/150/73 86/160/80 88/151/75
f 81/153/71 87/156/77 85/154/76
f 87/156/77 81/153/71 83/157/72
f 83/157/72 82/152/69 88/151/75
f 80/150/73 84/161/74 90/159/79
f 86/162/80 92/171/85 94/163/81
f 87/165/77 93/168/83 91/166/82
f 93/168/83 87/165/77 89/169/78
f 89/169/78 88/164/75 94/163/81
f 92/171/85 86/162/80 90/172/79
f 92/174/85 98/184/92 100/175/87
f 93/177/83 99/180/89 97/178/88
f 99/180/89 93/177/83 95/181/84
f 95/181/84 94/176/81 100/175/87
f 92/174/85 96/185/86 102/183/91
f 98/186/92 104/195/97 106/187/93
f 99/189/89 105/192/95 103/190/94
f 105/192/95 99/189/89 101/193/90
f 101/193/90 100/188/87 106/187/93
f 104/195/97 98/186/92 102/196/91
f 104/198/97 110/207/2 112/199/4
f 105/201/95 111/204/5 109/202/7
f 111/204/5 105/201/95 107/205/96
f 106/200/93 112/199/4 113/206/9
f 110/207/2 104/198/97 108/208/98
